<?xml version="1.0" standalone="no"?>
<!DOCTYPE svg PUBLIC "-//W3C//DTD SVG 20010904//EN"
 "http://www.w3.org/TR/2001/REC-SVG-20010904/DTD/svg10.dtd">
<svg version="1.0" xmlns="http://www.w3.org/2000/svg"
 width="613.000000pt" height="613.000000pt" viewBox="0 0 613.000000 613.000000"
 preserveAspectRatio="xMidYMid meet">
<metadata>
Created by potrace 1.11, written by Peter Selinger 2001-2013
</metadata>
<g transform="translate(0.000000,613.000000) scale(0.100000,-0.100000)"
fill="#000000" stroke="none">
<path d="M227 3962 l-58 -3 6 -572 c4 -315 8 -709 10 -877 2 -168 4 -335 4
-372 l1 -67 638 -1 c350 0 761 -1 912 -1 151 0 283 0 293 0 16 1 17 14 15 169
l-3 167 -771 -2 -770 -2 0 614 1 614 988 -4 c544 -2 991 -5 993 -8 3 -2 7
-346 9 -763 2 -418 4 -762 4 -766 1 -5 75 -8 166 -8 l165 0 0 940 0 940 -1147
0 c-632 0 -1204 2 -1273 3 -69 1 -151 1 -183 -1z"/>
<path d="M3274 3955 c-2 -5 -3 -255 -2 -555 l3 -544 157 0 c87 0 160 3 162 5
3 2 6 175 8 384 l3 380 1158 -3 1157 -2 -2 172 -3 172 -1319 1 c-870 0 -1320
-3 -1322 -10z"/>
<path d="M5590 3163 c0 -10 -1 -183 -1 -385 l-1 -368 -1159 0 -1159 0 0 -159
c0 -118 3 -160 13 -163 6 -3 251 -6 542 -7 292 -2 670 -4 840 -6 171 -2 522
-4 780 -6 l470 -3 3 557 2 557 -165 0 c-150 0 -165 -2 -165 -17z"/>
</g>
</svg>
